;TYPE=PLATED
;Layer: PTH_Through_Via
;EasyEDA Pro Client v2.2.32.3, 2024-12-21 19:23:06
;Gerber Generator version 0.3
M48
METRIC,LZ,000.00000
;Hole size 1 = 0.30480 METRIC
T01C0.30480
;Hole size 2 = 0.30500 METRIC
T02C0.30500
%
G05
G90
T01
X45.58487Y-39.88613
X44.58487Y-39.88613
X44.58487Y-40.88613
X45.58487Y-40.88613
T02
X47.13721Y-44.71264
X44.372Y-42.38253
X41.78287Y-43.77754
X43.81487Y-43.01554
X54.51683Y-38.735
X58.674Y-37.71036
X52.451Y-36.45764
X50.927Y-36.45764
X44.46706Y-64.4527
X46.7898Y-61.6587
X43.85856Y-63.89103
X46.90656Y-60.84303
X49.022Y-41.77436
X54.06635Y-48.85072
X56.642Y-49.125
X51.308Y-49.887
X61.71298Y-48.31295
X56.63298Y-48.31295
X70.98398Y-57.78539
X64.37998Y-53.97539
X43.91787Y-54.6145
X49.50587Y-66.5525
X49.149Y-37.90798
X46.23176Y-37.90422
X56.769Y-34.35198
X62.103Y-39.17798
X52.1335Y-45.52798
X45.35606Y-64.68745
X46.92597Y-63.26495
X52.00401Y-50.63701
X50.48001Y-51.39901
X45.60316Y-47.49648
X50.038Y-43.24537
X49.06936Y-38.69628
X39.50716Y-36.57448
X51.86336Y-40.02978
X64.26199Y-38.67139
X66.74002Y-46.22394
X65.97802Y-51.55794
X64.41039Y-40.45616
X66.44239Y-50.10816
X53.34Y-35.81349
X42.672Y-43.68749
X69.088Y-47.75149
X47.45141Y-45.67341
X39.878Y-66.548
X43.942Y-68.58
X57.15Y-65.405
X67.056Y-70.231
X70.47205Y-70.104
X70.104Y-61.595
X72.517Y-57.785
X69.088Y-54.102
X72.517Y-54.102
X72.43902Y-43.688
X64.262Y-51.181
X63.627Y-44.45
X61.595Y-40.64
X58.801Y-38.735
X57.785Y-44.45
X55.245Y-44.577
X50.546Y-43.815
X50.038Y-46.125
X48.133Y-50.927
X44.323Y-49.84902
X39.64813Y-51.435
X40.64Y-55.499
X41.656Y-57.52097
X45.2755Y-57.2135
X41.529Y-64.643
X46.863Y-69.088
X46.6725Y-64.7065
X50.038Y-70.231
X44.196Y-70.47636
X39.878Y-70.612
X50.673Y-32.512
X54.0881Y-38.0861
X41.783Y-37.211
X41.783Y-40.513
X45.212Y-41.91
X66.61756Y-41.66246
M30