G04 Layer: TopSilkscreenLayer*
G04 EasyEDA Pro v2.2.32.3, 2024-12-21 19:23:06*
G04 Gerber Generator version 0.3*
G04 Scale: 100 percent, Rotated: No, Reflected: No*
G04 Dimensions in millimeters*
G04 Leading zeros omitted, absolute positions, 3 integers and 5 decimals*
%FSLAX35Y35*%
%MOMM*%
%ADD10C,0.203*%
%ADD11C,0.1524*%
%ADD12C,0.254*%
%ADD13C,0.15001*%
%ADD14C,0.15199*%
%ADD15C,0.3052*%
%ADD16C,0.3*%
%ADD17C,0.60508*%
G75*


G04 Text Start*
G54D10*
G01X4315460Y-5970524D02*
G01X4416552Y-5970524D01*
G01X4366006Y-5335778D02*
G01X4366006Y-5436870D01*
G01X4315460Y-5386324D02*
G01X4416552Y-5386324D01*
G01X6774180Y-5264150D02*
G01X6766052Y-5268214D01*
G01X6757924Y-5276342D01*
G01X6753860Y-5288534D01*
G01X6753860Y-5296662D01*
G01X6757924Y-5308600D01*
G01X6766052Y-5316728D01*
G01X6774180Y-5320792D01*
G01X6786372Y-5320792D01*
G01X6794500Y-5316728D01*
G01X6802374Y-5308600D01*
G01X6806438Y-5296662D01*
G01X6806438Y-5288534D01*
G01X6802374Y-5276342D01*
G01X6794500Y-5268214D01*
G01X6786372Y-5264150D01*
G01X6774180Y-5264150D01*
G01X6878574Y-5235702D02*
G01X6870446Y-5235702D01*
G01X6862318Y-5239766D01*
G01X6858254Y-5251958D01*
G01X6858254Y-5320792D01*
G01X6846316Y-5264150D02*
G01X6874510Y-5264150D01*
G01X6950710Y-5235702D02*
G01X6942582Y-5235702D01*
G01X6934454Y-5239766D01*
G01X6930390Y-5251958D01*
G01X6930390Y-5320792D01*
G01X6918452Y-5264150D02*
G01X6946646Y-5264150D01*
G01X6824980Y-4540250D02*
G01X6816852Y-4544314D01*
G01X6808724Y-4552442D01*
G01X6804660Y-4564634D01*
G01X6804660Y-4572762D01*
G01X6808724Y-4584700D01*
G01X6816852Y-4592828D01*
G01X6824980Y-4596892D01*
G01X6837172Y-4596892D01*
G01X6845300Y-4592828D01*
G01X6853174Y-4584700D01*
G01X6857238Y-4572762D01*
G01X6857238Y-4564634D01*
G01X6853174Y-4552442D01*
G01X6845300Y-4544314D01*
G01X6837172Y-4540250D01*
G01X6824980Y-4540250D01*
G01X6897116Y-4540250D02*
G01X6897116Y-4596892D01*
G01X6897116Y-4556506D02*
G01X6909054Y-4544314D01*
G01X6917182Y-4540250D01*
G01X6929374Y-4540250D01*
G01X6937502Y-4544314D01*
G01X6941566Y-4556506D01*
G01X6941566Y-4596892D01*
G54D11*
G01X4386834Y-6675120D02*
G01X4321810Y-6675120D01*
G01X4386834Y-6675120D02*
G01X4321810Y-6700012D01*
G01X4386834Y-6724650D02*
G01X4321810Y-6700012D01*
G01X4386834Y-6724650D02*
G01X4321810Y-6724650D01*
G01X4386834Y-6779514D02*
G01X4321810Y-6754876D01*
G01X4386834Y-6779514D02*
G01X4321810Y-6804406D01*
G01X4343654Y-6764020D02*
G01X4343654Y-6795008D01*
G01X4386834Y-6834632D02*
G01X4321810Y-6877812D01*
G01X4386834Y-6877812D02*
G01X4321810Y-6834632D01*
G01X6925645Y-5770880D02*
G01X6990669Y-5770880D01*
G01X6925645Y-5770880D02*
G01X6925645Y-5742940D01*
G01X6928693Y-5733796D01*
G01X6931741Y-5730748D01*
G01X6938091Y-5727446D01*
G01X6947235Y-5727446D01*
G01X6953331Y-5730748D01*
G01X6956633Y-5733796D01*
G01X6959681Y-5742940D01*
G01X6959681Y-5770880D01*
G01X6925645Y-5678678D02*
G01X6928693Y-5685028D01*
G01X6934789Y-5691124D01*
G01X6941139Y-5694172D01*
G01X6950283Y-5697220D01*
G01X6965777Y-5697220D01*
G01X6975175Y-5694172D01*
G01X6981271Y-5691124D01*
G01X6987621Y-5685028D01*
G01X6990669Y-5678678D01*
G01X6990669Y-5666486D01*
G01X6987621Y-5660136D01*
G01X6981271Y-5654040D01*
G01X6975175Y-5650992D01*
G01X6965777Y-5647690D01*
G01X6950283Y-5647690D01*
G01X6941139Y-5650992D01*
G01X6934789Y-5654040D01*
G01X6928693Y-5660136D01*
G01X6925645Y-5666486D01*
G01X6925645Y-5678678D01*
G01X6925645Y-5617464D02*
G01X6990669Y-5602224D01*
G01X6925645Y-5586730D02*
G01X6990669Y-5602224D01*
G01X6925645Y-5586730D02*
G01X6990669Y-5571236D01*
G01X6925645Y-5555742D02*
G01X6990669Y-5571236D01*
G01X6925645Y-5525516D02*
G01X6990669Y-5525516D01*
G01X6925645Y-5525516D02*
G01X6925645Y-5485384D01*
G01X6956633Y-5525516D02*
G01X6956633Y-5500878D01*
G01X6990669Y-5525516D02*
G01X6990669Y-5485384D01*
G01X6925645Y-5455158D02*
G01X6990669Y-5455158D01*
G01X6925645Y-5455158D02*
G01X6925645Y-5427472D01*
G01X6928693Y-5418074D01*
G01X6931741Y-5415026D01*
G01X6938091Y-5411978D01*
G01X6944187Y-5411978D01*
G01X6950283Y-5415026D01*
G01X6953331Y-5418074D01*
G01X6956633Y-5427472D01*
G01X6956633Y-5455158D01*
G01X6956633Y-5433568D02*
G01X6990669Y-5411978D01*
G04 Text End*

G04 PolygonModel Start*
G54D12*
G01X4506623Y-4775898D02*
G01X4586625Y-4775898D01*
G01X4475637Y-4886874D02*
G01X4475637Y-4806876D01*
G01X4617603Y-4886874D02*
G01X4617603Y-4806876D01*
G01X4475056Y-4944463D02*
G01X4475056Y-5024463D01*
G01X4506039Y-5055446D02*
G01X4586036Y-5055446D01*
G01X4617016Y-4944463D02*
G01X4617016Y-5024463D01*
G01X4506039Y-5055451D02*
G02X4475056Y-5024468I0J30983D01*
G01X4617022Y-5024468D02*
G02X4586036Y-5055451I-30983J0D01*
G01X4475637Y-4806881D02*
G02X4506623Y-4775898I30983J0D01*
G01X4586620Y-4775898D02*
G02X4617603Y-4806881I0J-30983D01*
G01X5484523Y-4128198D02*
G01X5564525Y-4128198D01*
G01X5453537Y-4239174D02*
G01X5453537Y-4159176D01*
G01X5595503Y-4239174D02*
G01X5595503Y-4159176D01*
G01X5452956Y-4296763D02*
G01X5452956Y-4376763D01*
G01X5483939Y-4407746D02*
G01X5563936Y-4407746D01*
G01X5594916Y-4296763D02*
G01X5594916Y-4376763D01*
G01X5483939Y-4407751D02*
G02X5452956Y-4376768I0J30983D01*
G01X5594922Y-4376768D02*
G02X5563936Y-4407751I-30983J0D01*
G01X5453537Y-4159181D02*
G02X5484523Y-4128198I30983J0D01*
G01X5564520Y-4128198D02*
G02X5595503Y-4159181I0J-30983D01*
G54D13*
G01X3917348Y-4225742D02*
G01X3917348Y-4224746D01*
G01X3917348Y-4224746D02*
G01X3950353Y-4191742D01*
G01X3985351Y-4225742D02*
G01X3984353Y-4225742D01*
G01X3984353Y-4225742D02*
G01X3950353Y-4191742D01*
G01X3985351Y-4225742D02*
G01X3917348Y-4225742D01*
G01X4025359Y-4227746D02*
G01X4025359Y-4342747D01*
G01X3875347Y-4227746D02*
G01X3875347Y-4342747D01*
G01X4025349Y-4342747D02*
G01X3877356Y-4342747D01*
G01X3875115Y-4189745D02*
G01X3875115Y-4084734D01*
G01X3915123Y-4054739D02*
G01X3905120Y-4054739D01*
G01X3905120Y-4054739D02*
G01X3875115Y-4084734D01*
G01X3985118Y-4054739D02*
G01X3915123Y-4054739D01*
G01X3985118Y-4054739D02*
G01X3995133Y-4054739D01*
G01X3995133Y-4054739D02*
G01X4025128Y-4084734D01*
G01X4025128Y-4189745D02*
G01X4025128Y-4084734D01*
G01X3950353Y-4225742D02*
G01X3950353Y-4191742D01*
G54D11*
G01X4879360Y-4872279D02*
G01X4879360Y-4776391D01*
G01X4879360Y-4776391D02*
G01X4747240Y-4776391D01*
G01X4747240Y-4776391D02*
G01X4747240Y-4872279D01*
G01X4879360Y-4957521D02*
G01X4879360Y-5053409D01*
G01X4879360Y-5053409D02*
G01X4747240Y-5053409D01*
G01X4747240Y-5053409D02*
G01X4747240Y-4957521D01*
G01X3896340Y-3522421D02*
G01X3896340Y-3618309D01*
G01X3896340Y-3618309D02*
G01X4028460Y-3618309D01*
G01X4028460Y-3618309D02*
G01X4028460Y-3522421D01*
G01X3896340Y-3437179D02*
G01X3896340Y-3341291D01*
G01X3896340Y-3341291D02*
G01X4028460Y-3341291D01*
G01X4028460Y-3341291D02*
G01X4028460Y-3437179D01*
G01X4587260Y-4516679D02*
G01X4587260Y-4420791D01*
G01X4587260Y-4420791D02*
G01X4455140Y-4420791D01*
G01X4455140Y-4420791D02*
G01X4455140Y-4516679D01*
G01X4587260Y-4601921D02*
G01X4587260Y-4697809D01*
G01X4587260Y-4697809D02*
G01X4455140Y-4697809D01*
G01X4455140Y-4697809D02*
G01X4455140Y-4601921D01*
G54D13*
G01X4025356Y-3859444D02*
G01X4025356Y-3974450D01*
G01X3875344Y-3859444D02*
G01X3875344Y-3974450D01*
G01X4025351Y-3974450D02*
G01X3877353Y-3974450D01*
G01X3875115Y-3821443D02*
G01X3875115Y-3716431D01*
G01X3915126Y-3686437D02*
G01X3905123Y-3686437D01*
G01X3905123Y-3686437D02*
G01X3875115Y-3716431D01*
G01X3985118Y-3686437D02*
G01X3915126Y-3686437D01*
G01X3985118Y-3686437D02*
G01X3995133Y-3686437D01*
G01X3995133Y-3686437D02*
G01X4025128Y-3716431D01*
G01X4025128Y-3821443D02*
G01X4025128Y-3716431D01*
G36*
G01X3989697Y-3805410D02*
G01X3909698Y-3805410D01*
G01X3909698Y-3825405D01*
G01X3989697Y-3825405D01*
G01X3989697Y-3805410D01*
G37*
G54D12*
G01X3917892Y-6064608D02*
G01X3848105Y-6064608D01*
G01X3848105Y-6064608D02*
G01X3848105Y-5314607D01*
G01X3917887Y-5314607D02*
G01X3848105Y-5314607D01*
G01X4214119Y-6064608D02*
G01X4271007Y-6064608D01*
G01X4271005Y-5314607D02*
G01X4214114Y-5314607D01*
G01X4271007Y-5816605D02*
G01X4271007Y-6064606D01*
G01X4271005Y-5314607D02*
G01X4271005Y-5562605D01*
G01X4303301Y-5685234D02*
G01X4303301Y-5693994D01*
G54D11*
G01X4356359Y-3785979D02*
G01X4660641Y-3785979D01*
G01X4660641Y-3785979D02*
G01X4660641Y-4291221D01*
G01X4660641Y-4291221D02*
G01X4356359Y-4291221D01*
G01X4356359Y-4291221D02*
G01X4356359Y-3785979D01*
G54D12*
G01X4976523Y-3721798D02*
G01X5056525Y-3721798D01*
G01X4945537Y-3832774D02*
G01X4945537Y-3752776D01*
G01X5087503Y-3832774D02*
G01X5087503Y-3752776D01*
G01X4944956Y-3890363D02*
G01X4944956Y-3970363D01*
G01X4975939Y-4001346D02*
G01X5055936Y-4001346D01*
G01X5086916Y-3890363D02*
G01X5086916Y-3970363D01*
G01X4975939Y-4001351D02*
G02X4944956Y-3970368I0J30983D01*
G01X5086922Y-3970368D02*
G02X5055936Y-4001351I-30983J0D01*
G01X4945537Y-3752781D02*
G02X4976523Y-3721798I30983J0D01*
G01X5056520Y-3721798D02*
G02X5087503Y-3752781I0J-30983D01*
G01X6110577Y-3593401D02*
G01X6030575Y-3593401D01*
G01X6141563Y-3482426D02*
G01X6141563Y-3562424D01*
G01X5999597Y-3482426D02*
G01X5999597Y-3562424D01*
G01X6142144Y-3424837D02*
G01X6142144Y-3344837D01*
G01X6111161Y-3313854D02*
G01X6031164Y-3313854D01*
G01X6000184Y-3424837D02*
G01X6000184Y-3344837D01*
G01X6111161Y-3313849D02*
G02X6142144Y-3344832I0J-30983D01*
G01X6000179Y-3344832D02*
G02X6031164Y-3313849I30983J0D01*
G01X6141563Y-3562419D02*
G02X6110577Y-3593401I-30983J0D01*
G01X6030580Y-3593401D02*
G02X5999597Y-3562419I0J30983D01*
G01X6364577Y-3606101D02*
G01X6284575Y-3606101D01*
G01X6395563Y-3495126D02*
G01X6395563Y-3575124D01*
G01X6253597Y-3495126D02*
G01X6253597Y-3575124D01*
G01X6396144Y-3437537D02*
G01X6396144Y-3357537D01*
G01X6365161Y-3326554D02*
G01X6285164Y-3326554D01*
G01X6254184Y-3437537D02*
G01X6254184Y-3357537D01*
G01X6365161Y-3326549D02*
G02X6396144Y-3357532I0J-30983D01*
G01X6254179Y-3357532D02*
G02X6285164Y-3326549I30983J0D01*
G01X6395563Y-3575119D02*
G02X6364577Y-3606101I-30983J0D01*
G01X6284580Y-3606101D02*
G02X6253597Y-3575119I0J30983D01*
G01X5725823Y-3709098D02*
G01X5805825Y-3709098D01*
G01X5694837Y-3820074D02*
G01X5694837Y-3740076D01*
G01X5836803Y-3820074D02*
G01X5836803Y-3740076D01*
G01X5694256Y-3877663D02*
G01X5694256Y-3957663D01*
G01X5725239Y-3988646D02*
G01X5805236Y-3988646D01*
G01X5836216Y-3877663D02*
G01X5836216Y-3957663D01*
G01X5725239Y-3988651D02*
G02X5694256Y-3957668I0J30983D01*
G01X5836222Y-3957668D02*
G02X5805236Y-3988651I-30983J0D01*
G01X5694837Y-3740081D02*
G02X5725823Y-3709098I30983J0D01*
G01X5805820Y-3709098D02*
G02X5836803Y-3740081I0J-30983D01*
G01X6668199Y-3380077D02*
G01X6668199Y-3300075D01*
G01X6779174Y-3411063D02*
G01X6699176Y-3411063D01*
G01X6779174Y-3269097D02*
G01X6699176Y-3269097D01*
G01X6836763Y-3411644D02*
G01X6916763Y-3411644D01*
G01X6947746Y-3380661D02*
G01X6947746Y-3300664D01*
G01X6836763Y-3269684D02*
G01X6916763Y-3269684D01*
G01X6947751Y-3380661D02*
G02X6916768Y-3411644I-30983J0D01*
G01X6916768Y-3269678D02*
G02X6947751Y-3300664I0J-30983D01*
G01X6699181Y-3411063D02*
G02X6668199Y-3380077I0J30983D01*
G01X6668199Y-3300080D02*
G02X6699181Y-3269097I30983J0D01*
G54D14*
G01X5410200Y-3657600D02*
G01X5562600Y-3657600D01*
G01X5410200Y-3225800D02*
G01X5562600Y-3225800D01*
G54D11*
G01X5384800Y-3263900D02*
G01X5384800Y-3390900D01*
G01X5384800Y-3619500D02*
G01X5384800Y-3496160D01*
G01X5588000Y-3492500D02*
G01X5588000Y-3619500D01*
G01X5588000Y-3390900D02*
G01X5588000Y-3263900D01*
G54D14*
G01X5486400Y-3441700D02*
G02X5524500Y-3441700I19050J0D01*
G01X5486400Y-3441700D02*
G02X5448300Y-3441700I-19050J0D01*
G54D13*
G01X4766300Y-3303501D02*
G01X4766300Y-3282881D01*
G01X4766300Y-3282881D02*
G01X4351056Y-3282881D01*
G01X4351056Y-3282881D02*
G01X4351299Y-3302500D01*
G01X4352300Y-3682500D02*
G01X4352290Y-3702050D01*
G01X4352290Y-3702050D02*
G01X4767580Y-3702050D01*
G01X4767580Y-3702050D02*
G01X4767301Y-3680501D01*
G54D11*
G01X5217140Y-3916121D02*
G01X5217140Y-4012009D01*
G01X5217140Y-4012009D02*
G01X5349260Y-4012009D01*
G01X5349260Y-4012009D02*
G01X5349260Y-3916121D01*
G01X5217140Y-3830879D02*
G01X5217140Y-3734991D01*
G01X5217140Y-3734991D02*
G01X5349260Y-3734991D01*
G01X5349260Y-3734991D02*
G01X5349260Y-3830879D01*
G01X6271240Y-3890721D02*
G01X6271240Y-3986609D01*
G01X6271240Y-3986609D02*
G01X6403360Y-3986609D01*
G01X6403360Y-3986609D02*
G01X6403360Y-3890721D01*
G01X6271240Y-3805479D02*
G01X6271240Y-3709591D01*
G01X6271240Y-3709591D02*
G01X6403360Y-3709591D01*
G01X6403360Y-3709591D02*
G01X6403360Y-3805479D01*
G01X5590560Y-3830879D02*
G01X5590560Y-3734991D01*
G01X5590560Y-3734991D02*
G01X5458440Y-3734991D01*
G01X5458440Y-3734991D02*
G01X5458440Y-3830879D01*
G01X5590560Y-3916121D02*
G01X5590560Y-4012009D01*
G01X5590560Y-4012009D02*
G01X5458440Y-4012009D01*
G01X5458440Y-4012009D02*
G01X5458440Y-3916121D01*
G54D12*
G01X5227548Y-3529102D02*
G01X5227548Y-3389402D01*
G01X4935448Y-3501492D02*
G01X4935448Y-3417014D01*
G01X5113248Y-3548152D02*
G01X5037048Y-3548152D01*
G01X6221123Y-4852098D02*
G01X6301125Y-4852098D01*
G01X6190137Y-4963074D02*
G01X6190137Y-4883076D01*
G01X6332103Y-4963074D02*
G01X6332103Y-4883076D01*
G01X6189556Y-5020663D02*
G01X6189556Y-5100663D01*
G01X6220539Y-5131646D02*
G01X6300536Y-5131646D01*
G01X6331516Y-5020663D02*
G01X6331516Y-5100663D01*
G01X6220539Y-5131651D02*
G02X6189556Y-5100668I0J30983D01*
G01X6331522Y-5100668D02*
G02X6300536Y-5131651I-30983J0D01*
G01X6190137Y-4883081D02*
G02X6221123Y-4852098I30983J0D01*
G01X6301120Y-4852098D02*
G02X6332103Y-4883081I0J-30983D01*
G01X6513223Y-4852098D02*
G01X6593225Y-4852098D01*
G01X6482237Y-4963074D02*
G01X6482237Y-4883076D01*
G01X6624203Y-4963074D02*
G01X6624203Y-4883076D01*
G01X6481656Y-5020663D02*
G01X6481656Y-5100663D01*
G01X6512639Y-5131646D02*
G01X6592636Y-5131646D01*
G01X6623616Y-5020663D02*
G01X6623616Y-5100663D01*
G01X6512639Y-5131651D02*
G02X6481656Y-5100668I0J30983D01*
G01X6623622Y-5100668D02*
G02X6592636Y-5131651I-30983J0D01*
G01X6482237Y-4883081D02*
G02X6513223Y-4852098I30983J0D01*
G01X6593220Y-4852098D02*
G02X6624203Y-4883081I0J-30983D01*
G54D11*
G01X5921527Y-4346819D02*
G01X5921527Y-3806586D01*
G01X6194268Y-4346819D02*
G01X6194268Y-3806586D01*
G01X5921527Y-4210599D02*
G01X6194268Y-4210599D01*
G01X5921527Y-3806586D02*
G01X5956577Y-3806586D01*
G01X6194268Y-3806586D02*
G01X6159218Y-3806586D01*
G36*
G01X6201890Y-4339199D02*
G01X6154141Y-4339199D01*
G01X6154141Y-4384919D01*
G01X6201890Y-4384919D01*
G01X6201890Y-4339199D01*
G37*
G36*
G01X5913910Y-4339199D02*
G01X5961659Y-4339199D01*
G01X5961659Y-4384919D01*
G01X5913910Y-4384919D01*
G01X5913910Y-4339199D01*
G37*
G54D12*
G01X5746900Y-4838799D02*
G01X5746900Y-4925200D01*
G01X5746900Y-4925200D02*
G01X5646898Y-4925200D01*
G01X5606900Y-4743803D02*
G01X5606900Y-4806597D01*
G01X5746900Y-4625200D02*
G01X5746900Y-4711601D01*
G01X5746900Y-4625200D02*
G01X5646898Y-4625200D01*
G54D11*
G01X4879360Y-4529379D02*
G01X4879360Y-4433491D01*
G01X4879360Y-4433491D02*
G01X4747240Y-4433491D01*
G01X4747240Y-4433491D02*
G01X4747240Y-4529379D01*
G01X4879360Y-4614621D02*
G01X4879360Y-4710509D01*
G01X4879360Y-4710509D02*
G01X4747240Y-4710509D01*
G01X4747240Y-4710509D02*
G01X4747240Y-4614621D01*
G01X4638060Y-6929679D02*
G01X4638060Y-6833791D01*
G01X4638060Y-6833791D02*
G01X4505940Y-6833791D01*
G01X4505940Y-6833791D02*
G01X4505940Y-6929679D01*
G01X4638060Y-7014921D02*
G01X4638060Y-7110809D01*
G01X4638060Y-7110809D02*
G01X4505940Y-7110809D01*
G01X4505940Y-7110809D02*
G01X4505940Y-7014921D01*
G54D12*
G01X5805777Y-3593401D02*
G01X5725775Y-3593401D01*
G01X5836763Y-3482426D02*
G01X5836763Y-3562424D01*
G01X5694797Y-3482426D02*
G01X5694797Y-3562424D01*
G01X5837344Y-3424837D02*
G01X5837344Y-3344837D01*
G01X5806361Y-3313854D02*
G01X5726364Y-3313854D01*
G01X5695384Y-3424837D02*
G01X5695384Y-3344837D01*
G01X5806361Y-3313849D02*
G02X5837344Y-3344832I0J-30983D01*
G01X5695379Y-3344832D02*
G02X5726364Y-3313849I30983J0D01*
G01X5836763Y-3562419D02*
G02X5805777Y-3593401I-30983J0D01*
G01X5725780Y-3593401D02*
G02X5694797Y-3562419I0J30983D01*
G01X6271923Y-4077398D02*
G01X6351925Y-4077398D01*
G01X6240937Y-4188374D02*
G01X6240937Y-4108376D01*
G01X6382903Y-4188374D02*
G01X6382903Y-4108376D01*
G01X6240356Y-4245963D02*
G01X6240356Y-4325963D01*
G01X6271339Y-4356946D02*
G01X6351336Y-4356946D01*
G01X6382316Y-4245963D02*
G01X6382316Y-4325963D01*
G01X6271339Y-4356951D02*
G02X6240356Y-4325968I0J30983D01*
G01X6382322Y-4325968D02*
G02X6351336Y-4356951I-30983J0D01*
G01X6240937Y-4108381D02*
G02X6271923Y-4077398I30983J0D01*
G01X6351920Y-4077398D02*
G02X6382903Y-4108381I0J-30983D01*
G54D11*
G01X5902940Y-5033721D02*
G01X5902940Y-5129609D01*
G01X5902940Y-5129609D02*
G01X6035060Y-5129609D01*
G01X6035060Y-5129609D02*
G01X6035060Y-5033721D01*
G01X5902940Y-4948479D02*
G01X5902940Y-4852591D01*
G01X5902940Y-4852591D02*
G01X6035060Y-4852591D01*
G01X6035060Y-4852591D02*
G01X6035060Y-4948479D01*
G01X6035060Y-4605579D02*
G01X6035060Y-4509691D01*
G01X6035060Y-4509691D02*
G01X5902940Y-4509691D01*
G01X5902940Y-4509691D02*
G01X5902940Y-4605579D01*
G01X6035060Y-4690821D02*
G01X6035060Y-4786709D01*
G01X6035060Y-4786709D02*
G01X5902940Y-4786709D01*
G01X5902940Y-4786709D02*
G01X5902940Y-4690821D01*
G01X5191740Y-4297121D02*
G01X5191740Y-4393009D01*
G01X5191740Y-4393009D02*
G01X5323860Y-4393009D01*
G01X5323860Y-4393009D02*
G01X5323860Y-4297121D01*
G01X5191740Y-4211879D02*
G01X5191740Y-4115991D01*
G01X5191740Y-4115991D02*
G01X5323860Y-4115991D01*
G01X5323860Y-4115991D02*
G01X5323860Y-4211879D01*
G54D12*
G01X4599277Y-5650801D02*
G01X4519275Y-5650801D01*
G01X4630263Y-5539826D02*
G01X4630263Y-5619824D01*
G01X4488297Y-5539826D02*
G01X4488297Y-5619824D01*
G01X4630844Y-5482237D02*
G01X4630844Y-5402237D01*
G01X4599861Y-5371254D02*
G01X4519864Y-5371254D01*
G01X4488884Y-5482237D02*
G01X4488884Y-5402237D01*
G01X4599861Y-5371249D02*
G02X4630844Y-5402232I0J-30983D01*
G01X4488879Y-5402232D02*
G02X4519864Y-5371249I30983J0D01*
G01X4630263Y-5619819D02*
G02X4599277Y-5650801I-30983J0D01*
G01X4519280Y-5650801D02*
G02X4488297Y-5619819I0J30983D01*
G01X5818477Y-4393501D02*
G01X5738475Y-4393501D01*
G01X5849463Y-4282526D02*
G01X5849463Y-4362524D01*
G01X5707497Y-4282526D02*
G01X5707497Y-4362524D01*
G01X5850044Y-4224937D02*
G01X5850044Y-4144937D01*
G01X5819061Y-4113954D02*
G01X5739064Y-4113954D01*
G01X5708084Y-4224937D02*
G01X5708084Y-4144937D01*
G01X5819061Y-4113949D02*
G02X5850044Y-4144932I0J-30983D01*
G01X5708079Y-4144932D02*
G02X5739064Y-4113949I30983J0D01*
G01X5849463Y-4362519D02*
G02X5818477Y-4393501I-30983J0D01*
G01X5738480Y-4393501D02*
G02X5707497Y-4362519I0J30983D01*
G01X4611977Y-6793801D02*
G01X4531975Y-6793801D01*
G01X4642963Y-6682826D02*
G01X4642963Y-6762824D01*
G01X4500997Y-6682826D02*
G01X4500997Y-6762824D01*
G01X4643544Y-6625237D02*
G01X4643544Y-6545237D01*
G01X4612561Y-6514254D02*
G01X4532564Y-6514254D01*
G01X4501584Y-6625237D02*
G01X4501584Y-6545237D01*
G01X4612561Y-6514249D02*
G02X4643544Y-6545232I0J-30983D01*
G01X4501579Y-6545232D02*
G02X4532564Y-6514249I30983J0D01*
G01X4642963Y-6762819D02*
G02X4611977Y-6793801I-30983J0D01*
G01X4531980Y-6793801D02*
G02X4500997Y-6762819I0J30983D01*
G01X4317302Y-7021223D02*
G01X4317302Y-7101225D01*
G01X4206326Y-6990237D02*
G01X4286324Y-6990237D01*
G01X4206326Y-7132203D02*
G01X4286324Y-7132203D01*
G01X4148737Y-6989656D02*
G01X4068737Y-6989656D01*
G01X4037754Y-7020639D02*
G01X4037754Y-7100636D01*
G01X4148737Y-7131616D02*
G01X4068737Y-7131616D01*
G01X4037749Y-7020639D02*
G02X4068732Y-6989656I30983J0D01*
G01X4068732Y-7131621D02*
G02X4037749Y-7100636I0J30983D01*
G01X4286319Y-6990237D02*
G02X4317302Y-7021223I0J-30983D01*
G01X4317302Y-7101220D02*
G02X4286319Y-7132203I-30983J0D01*
G54D11*
G01X4455140Y-5948121D02*
G01X4455140Y-6044009D01*
G01X4455140Y-6044009D02*
G01X4587260Y-6044009D01*
G01X4587260Y-6044009D02*
G01X4587260Y-5948121D01*
G01X4455140Y-5862879D02*
G01X4455140Y-5766991D01*
G01X4455140Y-5766991D02*
G01X4587260Y-5766991D01*
G01X4587260Y-5766991D02*
G01X4587260Y-5862879D01*
G54D13*
G01X4496996Y-6331105D02*
G01X4647004Y-6331105D01*
G01X4647004Y-6191100D02*
G01X4647004Y-6331105D01*
G01X4496996Y-6191100D02*
G01X4496996Y-6331105D01*
G01X4496996Y-6191100D02*
G01X4647004Y-6191100D01*
G54D12*
G01X3917892Y-6902808D02*
G01X3848105Y-6902808D01*
G01X3848105Y-6902808D02*
G01X3848105Y-6152807D01*
G01X3917887Y-6152807D02*
G01X3848105Y-6152807D01*
G01X4214119Y-6902808D02*
G01X4271007Y-6902808D01*
G01X4271005Y-6152807D02*
G01X4214114Y-6152807D01*
G01X4271007Y-6654805D02*
G01X4271007Y-6902806D01*
G01X4271005Y-6152807D02*
G01X4271005Y-6400805D01*
G01X4303301Y-6523434D02*
G01X4303301Y-6532194D01*
G54D11*
G01X6327160Y-4592879D02*
G01X6327160Y-4496991D01*
G01X6327160Y-4496991D02*
G01X6195040Y-4496991D01*
G01X6195040Y-4496991D02*
G01X6195040Y-4592879D01*
G01X6327160Y-4678121D02*
G01X6327160Y-4774009D01*
G01X6327160Y-4774009D02*
G01X6195040Y-4774009D01*
G01X6195040Y-4774009D02*
G01X6195040Y-4678121D01*
G01X6619260Y-4605579D02*
G01X6619260Y-4509691D01*
G01X6619260Y-4509691D02*
G01X6487140Y-4509691D01*
G01X6487140Y-4509691D02*
G01X6487140Y-4605579D01*
G01X6619260Y-4690821D02*
G01X6619260Y-4786709D01*
G01X6619260Y-4786709D02*
G01X6487140Y-4786709D01*
G01X6487140Y-4786709D02*
G01X6487140Y-4690821D01*
G54D12*
G01X7301989Y-3528108D02*
G01X7301989Y-4422107D01*
G01X7301989Y-4422107D02*
G01X7164261Y-4422107D01*
G01X6919072Y-3528108D02*
G01X6764912Y-3528108D01*
G01X7301989Y-3528108D02*
G01X7164898Y-3528108D01*
G01X6919712Y-4422107D02*
G01X6764279Y-4422107D01*
G01X6777787Y-6668198D02*
G01X6857789Y-6668198D01*
G01X6746801Y-6779174D02*
G01X6746801Y-6699176D01*
G01X6888767Y-6779174D02*
G01X6888767Y-6699176D01*
G01X6746220Y-6836763D02*
G01X6746220Y-6916763D01*
G01X6777203Y-6947746D02*
G01X6857200Y-6947746D01*
G01X6888180Y-6836763D02*
G01X6888180Y-6916763D01*
G01X6777203Y-6947751D02*
G02X6746220Y-6916768I0J30983D01*
G01X6888185Y-6916768D02*
G02X6857200Y-6947751I-30983J0D01*
G01X6746801Y-6699181D02*
G02X6777787Y-6668198I30983J0D01*
G01X6857784Y-6668198D02*
G02X6888767Y-6699181I0J-30983D01*
G01X3954800Y-5219649D02*
G01X3954800Y-5139649D01*
G01X3934790Y-4919574D02*
G01X3894785Y-4919574D01*
G01X3894785Y-4919574D02*
G01X3894798Y-4879574D01*
G01X3894798Y-4879574D02*
G01X3934790Y-4919574D01*
G01X4264800Y-4369651D02*
G01X4264800Y-4429651D01*
G01X4294800Y-4399651D02*
G01X4234800Y-4399651D01*
G01X4364787Y-5029599D02*
G01X4337812Y-5029599D01*
G01X4191762Y-5029599D02*
G01X4037838Y-5029599D01*
G01X3891788Y-5029599D02*
G01X3864788Y-5029599D01*
G01X4364787Y-4529600D02*
G01X4337812Y-4529600D01*
G01X4191762Y-4529600D02*
G01X4037838Y-4529600D01*
G01X3891788Y-4529600D02*
G01X3864788Y-4529600D01*
G01X4364787Y-4529600D02*
G01X4364787Y-5029599D01*
G01X3864788Y-4529600D02*
G01X3864788Y-5029599D01*
G54D13*
G01X6849031Y-5591358D02*
G01X6849031Y-5592354D01*
G01X6849031Y-5592354D02*
G01X6816027Y-5625358D01*
G01X6781028Y-5591358D02*
G01X6782026Y-5591358D01*
G01X6782026Y-5591358D02*
G01X6816027Y-5625358D01*
G01X6781028Y-5591358D02*
G01X6849031Y-5591358D01*
G01X6741020Y-5589354D02*
G01X6741020Y-5474353D01*
G01X6891033Y-5589354D02*
G01X6891033Y-5474353D01*
G01X6741030Y-5474353D02*
G01X6889024Y-5474353D01*
G01X6891264Y-5627355D02*
G01X6891264Y-5732366D01*
G01X6851256Y-5762361D02*
G01X6861259Y-5762361D01*
G01X6861259Y-5762361D02*
G01X6891264Y-5732366D01*
G01X6781262Y-5762361D02*
G01X6851256Y-5762361D01*
G01X6781262Y-5762361D02*
G01X6771246Y-5762361D01*
G01X6771246Y-5762361D02*
G01X6741251Y-5732366D01*
G01X6741251Y-5627355D02*
G01X6741251Y-5732366D01*
G01X6816027Y-5591358D02*
G01X6816027Y-5625358D01*
G54D11*
G01X6873260Y-6345208D02*
G01X6873260Y-6249320D01*
G01X6873260Y-6249320D02*
G01X6741140Y-6249320D01*
G01X6741140Y-6249320D02*
G01X6741140Y-6345208D01*
G01X6873260Y-6430450D02*
G01X6873260Y-6526338D01*
G01X6873260Y-6526338D02*
G01X6741140Y-6526338D01*
G01X6741140Y-6526338D02*
G01X6741140Y-6430450D01*
G01X6873260Y-5956810D02*
G01X6873260Y-5860922D01*
G01X6873260Y-5860922D02*
G01X6741140Y-5860922D01*
G01X6741140Y-5860922D02*
G01X6741140Y-5956810D01*
G01X6873260Y-6042052D02*
G01X6873260Y-6137940D01*
G01X6873260Y-6137940D02*
G01X6741140Y-6137940D01*
G01X6741140Y-6137940D02*
G01X6741140Y-6042052D01*
G01X7122140Y-5656021D02*
G01X7122140Y-5751909D01*
G01X7122140Y-5751909D02*
G01X7254260Y-5751909D01*
G01X7254260Y-5751909D02*
G01X7254260Y-5656021D01*
G01X7122140Y-5570779D02*
G01X7122140Y-5474891D01*
G01X7122140Y-5474891D02*
G01X7254260Y-5474891D01*
G01X7254260Y-5474891D02*
G01X7254260Y-5570779D01*
G54D12*
G01X7426902Y-4899899D02*
G01X7426902Y-4772353D01*
G01X7426902Y-4772353D02*
G01X7266899Y-4772353D01*
G01X7266899Y-4899899D02*
G01X7426902Y-4899899D01*
G01X7068307Y-4574901D02*
G01X7188307Y-4574901D01*
G01X7068307Y-5254899D02*
G01X7188307Y-5254899D01*
G01X7268903Y-5189898D02*
G01X7268903Y-4639897D01*
G01X6978907Y-4638012D02*
G01X6978907Y-4639010D01*
G01X6978907Y-5064900D02*
G01X6978907Y-4914900D01*
G01X7412203Y-6605608D02*
G01X7292205Y-6605608D01*
G01X7412203Y-6605608D02*
G01X7412203Y-6805607D01*
G01X7062208Y-6616708D02*
G01X7062208Y-6794508D01*
G01X7278406Y-6475606D02*
G01X7292205Y-6475606D01*
G01X7292205Y-6475606D02*
G01X7292205Y-6935610D01*
G01X7292205Y-6935610D02*
G01X7278406Y-6935610D01*
G01X7412203Y-6805607D02*
G01X7292205Y-6805607D01*
G01X7412203Y-5996008D02*
G01X7292205Y-5996008D01*
G01X7412203Y-5996008D02*
G01X7412203Y-6196007D01*
G01X7062208Y-6007108D02*
G01X7062208Y-6184908D01*
G01X7278406Y-5866006D02*
G01X7292205Y-5866006D01*
G01X7292205Y-5866006D02*
G01X7292205Y-6326010D01*
G01X7292205Y-6326010D02*
G01X7278406Y-6326010D01*
G01X7412203Y-6196007D02*
G01X7292205Y-6196007D01*
G01X4972583Y-7182335D02*
G01X4972583Y-7670795D01*
G01X4972583Y-7670795D02*
G01X5196103Y-7670795D01*
G01X5175783Y-7182335D02*
G01X5175783Y-7670795D01*
G01X5175783Y-7670795D02*
G01X5461000Y-7670795D01*
G01X5461000Y-7670795D02*
G01X5461000Y-7454895D01*
G01X5461000Y-7454895D02*
G01X5715000Y-7454895D01*
G01X5715000Y-7454895D02*
G01X5715000Y-7670795D01*
G01X5715000Y-7670795D02*
G01X5969000Y-7670795D01*
G01X5969000Y-7670795D02*
G01X5969000Y-7454895D01*
G01X5969000Y-7454895D02*
G01X6197600Y-7454895D01*
G01X6197600Y-7454895D02*
G01X6197600Y-7670795D01*
G01X6197600Y-7670795D02*
G01X6426200Y-7670795D01*
G01X6426200Y-7670795D02*
G01X6426200Y-7302495D01*
G01X6602301Y-7182335D02*
G01X4800600Y-7182335D01*
G01X4800600Y-7104410D02*
G01X4800600Y-7785095D01*
G01X4935685Y-5232395D02*
G01X4800600Y-5232395D01*
G01X4800600Y-5232395D02*
G01X4800600Y-5317180D01*
G01X6602301Y-5317180D02*
G01X6602301Y-5232395D01*
G01X6602301Y-5232395D02*
G01X6468915Y-5232395D01*
G01X6602301Y-7786296D02*
G01X6602301Y-7104410D01*
G01X4802299Y-7786296D02*
G01X6602301Y-7786296D01*
G36*
G01X6455156Y-7056798D02*
G02X6349441Y-7056798I-52857J0D01*
G02X6455156Y-7056798I52857J0D01*
G37*

G04 Rect Start*
G01X5387000Y-4542498D02*
G01X5387000Y-4982497D01*
G01X5027000Y-4982497D01*
G01X5027000Y-4542498D01*
G01X5387000Y-4542498D01*
G04 Rect End*

G04 Circle Start*
G01X4354106Y-5533199D02*
G03X4379506Y-5533199I12700J0D01*
G03X4354106Y-5533199I-12700J0D01*
G54D16*
G01X4416577Y-3848100D02*
G03X4446600Y-3848100I15011J0D01*
G03X4416577Y-3848100I-15011J0D01*
G01X4216248Y-3773449D02*
G03X4246270Y-3773449I15011J0D01*
G03X4216248Y-3773449I-15011J0D01*
G54D17*
G01X5242560Y-3347720D03*
G54D16*
G01X5192011Y-4862500D02*
G03X5222014Y-4862500I15001J0D01*
G03X5192011Y-4862500I-15001J0D01*
G54D13*
G01X4467946Y-6221085D02*
G03X4482069Y-6221085I7061J0D01*
G03X4467946Y-6221085I-7061J0D01*
G54D12*
G01X4354106Y-6371399D02*
G03X4379506Y-6371399I12700J0D01*
G03X4354106Y-6371399I-12700J0D01*
G01X3964788Y-4779587D02*
G03X4264812Y-4779587I150012J0D01*
G03X3964788Y-4779587I-150012J0D01*
G04 Circle End*

M02*

