G04 Layer: BottomSilkscreenLayer*
G04 EasyEDA Pro v2.2.32.3, 2024-12-21 19:23:06*
G04 Gerber Generator version 0.3*
G04 Scale: 100 percent, Rotated: No, Reflected: No*
G04 Dimensions in millimeters*
G04 Leading zeros omitted, absolute positions, 3 integers and 5 decimals*
%FSLAX35Y35*%
%MOMM*%
%ADD10C,0.203*%
G75*


G04 Text Start*
G54D10*
G01X6105144Y-3556508D02*
G01X6200140Y-3805682D01*
G01X6105144Y-3556508D02*
G01X6010402Y-3805682D01*
G01X6164580Y-3722624D02*
G01X6045962Y-3722624D01*
G01X5933186Y-3556508D02*
G01X5933186Y-3805682D01*
G01X5855970Y-3699002D02*
G01X5642356Y-3699002D01*
G01X5482082Y-3556508D02*
G01X5482082Y-3805682D01*
G01X5565140Y-3556508D02*
G01X5399024Y-3556508D01*
G01X5250688Y-3556508D02*
G01X5274310Y-3568446D01*
G01X5297932Y-3592068D01*
G01X5309870Y-3615944D01*
G01X5321808Y-3651504D01*
G01X5321808Y-3710686D01*
G01X5309870Y-3746246D01*
G01X5297932Y-3770122D01*
G01X5274310Y-3793744D01*
G01X5250688Y-3805682D01*
G01X5203190Y-3805682D01*
G01X5179314Y-3793744D01*
G01X5155692Y-3770122D01*
G01X5143754Y-3746246D01*
G01X5131816Y-3710686D01*
G01X5131816Y-3651504D01*
G01X5143754Y-3615944D01*
G01X5155692Y-3592068D01*
G01X5179314Y-3568446D01*
G01X5203190Y-3556508D01*
G01X5250688Y-3556508D01*
G01X5054600Y-3556508D02*
G01X4959604Y-3675126D01*
G01X4959604Y-3805682D01*
G01X4864608Y-3556508D02*
G01X4959604Y-3675126D01*
G04 Text End*

M02*

