G04 Layer: TopPasteMaskLayer*
G04 EasyEDA Pro v2.2.32.3, 2024-12-21 19:23:06*
G04 Gerber Generator version 0.3*
G04 Scale: 100 percent, Rotated: No, Reflected: No*
G04 Dimensions in millimeters*
G04 Leading zeros omitted, absolute positions, 3 integers and 5 decimals*
%FSLAX35Y35*%
%MOMM*%
%AMRoundRect*1,1,$1,$2,$3*1,1,$1,$4,$5*1,1,$1,0-$2,0-$3*1,1,$1,0-$4,0-$5*20,1,$1,$2,$3,$4,$5,0*20,1,$1,$4,$5,0-$2,0-$3,0*20,1,$1,0-$2,0-$3,0-$4,0-$5,0*20,1,$1,0-$4,0-$5,$2,$3,0*4,1,4,$2,$3,$4,$5,0-$2,0-$3,0-$4,0-$5,$2,$3,0*%
%ADD10RoundRect,0.24X-0.33X-0.28X-0.33X0.28*%
%ADD11R,0.8X0.8*%
%ADD12R,1.7X0.7*%
%ADD13R,2.49999X1.8*%
%ADD14O,1.8X0.6*%
%ADD15R,2.28999X2.28999*%
%ADD16R,0.9X0.8*%
%ADD17RoundRect,0.2463X0.33X0.28X0.33X-0.28*%
%ADD18RoundRect,0.24X0.33X0.28X0.33X-0.28*%
%ADD19RoundRect,0.24X0.28X-0.33X-0.28X-0.33*%
%ADD20R,1.6X3.49999*%
%ADD21R,0.6X1.0*%
%ADD22R,1.7X2.2*%
%ADD23R,1.0X0.8*%
%ADD24R,1.2X0.75001*%
%ADD25R,0.9X0.8*%
%ADD26R,0.8X0.9*%
%ADD27C,0.23*%
%ADD28R,1.0X1.5*%
%ADD29R,0.8X0.8*%
%ADD30R,0.7X1.2*%
%ADD31R,1.524X0.6*%
%ADD32R,1.2X0.9*%
%ADD33R,1.2X0.9*%
%ADD34R,1.3X1.2*%
%ADD35R,1.5X0.9*%
%ADD36R,0.9X1.5*%
%ADD37R,1.5X0.9*%
%ADD38R,0.9X0.9*%
G75*


G04 PolygonModel Start*
G36*
G01X4768301Y-4795398D02*
G01X4768301Y-4875398D01*
G01X4773303Y-4880399D01*
G01X4796099Y-4880399D01*
G01X4796099Y-4843399D01*
G01X4829099Y-4843399D01*
G01X4829099Y-4880399D01*
G01X4853302Y-4880399D01*
G01X4858301Y-4875398D01*
G01X4858301Y-4795398D01*
G01X4853302Y-4790399D01*
G01X4773303Y-4790399D01*
G01X4768301Y-4795398D01*
G37*
G36*
G01X4858299Y-5034402D02*
G01X4858299Y-4954402D01*
G01X4853297Y-4949401D01*
G01X4830501Y-4949401D01*
G01X4830501Y-4986401D01*
G01X4797501Y-4986401D01*
G01X4797501Y-4949401D01*
G01X4773298Y-4949401D01*
G01X4768299Y-4954402D01*
G01X4768299Y-5034402D01*
G01X4773298Y-5039401D01*
G01X4853297Y-5039401D01*
G01X4858299Y-5034402D01*
G37*
G36*
G01X4007399Y-3599302D02*
G01X4007399Y-3519302D01*
G01X4002397Y-3514301D01*
G01X3979601Y-3514301D01*
G01X3979601Y-3551301D01*
G01X3946601Y-3551301D01*
G01X3946601Y-3514301D01*
G01X3922398Y-3514301D01*
G01X3917399Y-3519302D01*
G01X3917399Y-3599302D01*
G01X3922398Y-3604301D01*
G01X4002397Y-3604301D01*
G01X4007399Y-3599302D01*
G37*
G36*
G01X3917401Y-3360298D02*
G01X3917401Y-3440298D01*
G01X3922403Y-3445299D01*
G01X3945199Y-3445299D01*
G01X3945199Y-3408299D01*
G01X3978199Y-3408299D01*
G01X3978199Y-3445299D01*
G01X4002402Y-3445299D01*
G01X4007401Y-3440298D01*
G01X4007401Y-3360298D01*
G01X4002402Y-3355299D01*
G01X3922403Y-3355299D01*
G01X3917401Y-3360298D01*
G37*
G36*
G01X4476201Y-4439798D02*
G01X4476201Y-4519798D01*
G01X4481203Y-4524799D01*
G01X4503999Y-4524799D01*
G01X4503999Y-4487799D01*
G01X4536999Y-4487799D01*
G01X4536999Y-4524799D01*
G01X4561202Y-4524799D01*
G01X4566201Y-4519798D01*
G01X4566201Y-4439798D01*
G01X4561202Y-4434799D01*
G01X4481203Y-4434799D01*
G01X4476201Y-4439798D01*
G37*
G36*
G01X4566199Y-4678802D02*
G01X4566199Y-4598802D01*
G01X4561197Y-4593801D01*
G01X4538401Y-4593801D01*
G01X4538401Y-4630801D01*
G01X4505401Y-4630801D01*
G01X4505401Y-4593801D01*
G01X4481198Y-4593801D01*
G01X4476199Y-4598802D01*
G01X4476199Y-4678802D01*
G01X4481198Y-4683801D01*
G01X4561197Y-4683801D01*
G01X4566199Y-4678802D01*
G37*
G36*
G01X5548396Y-3609203D02*
G01X5420398Y-3609203D01*
G01X5415397Y-3604202D01*
G01X5415397Y-3489201D01*
G01X5420398Y-3484202D01*
G01X5461401Y-3483699D01*
G01X5461401Y-3528700D01*
G01X5506400Y-3528700D01*
G01X5506400Y-3484700D01*
G01X5548396Y-3484202D01*
G01X5553398Y-3489201D01*
G01X5553398Y-3604202D01*
G01X5548396Y-3609203D01*
G37*
G36*
G01X5548396Y-3394202D02*
G01X5506400Y-3394199D01*
G01X5506400Y-3349701D01*
G01X5461401Y-3349701D01*
G01X5461401Y-3393699D01*
G01X5420398Y-3394202D01*
G01X5415397Y-3389201D01*
G01X5415397Y-3274202D01*
G01X5420398Y-3269201D01*
G01X5548396Y-3269201D01*
G01X5553398Y-3274202D01*
G01X5553398Y-3389201D01*
G01X5548396Y-3394202D01*
G37*
G36*
G01X5328199Y-3993002D02*
G01X5328199Y-3913002D01*
G01X5323197Y-3908001D01*
G01X5300401Y-3908001D01*
G01X5300401Y-3945001D01*
G01X5267401Y-3945001D01*
G01X5267401Y-3908001D01*
G01X5243198Y-3908001D01*
G01X5238199Y-3913002D01*
G01X5238199Y-3993002D01*
G01X5243198Y-3998001D01*
G01X5323197Y-3998001D01*
G01X5328199Y-3993002D01*
G37*
G36*
G01X5323197Y-3838001D02*
G01X5300401Y-3838001D01*
G01X5300401Y-3800003D01*
G01X5267401Y-3800003D01*
G01X5267401Y-3838001D01*
G01X5243198Y-3838001D01*
G01X5238199Y-3833002D01*
G01X5238199Y-3754003D01*
G01X5243198Y-3749002D01*
G01X5323197Y-3749002D01*
G01X5328199Y-3754003D01*
G01X5328199Y-3833002D01*
G01X5323197Y-3838001D01*
G37*
G36*
G01X6382299Y-3967602D02*
G01X6382299Y-3887602D01*
G01X6377297Y-3882601D01*
G01X6354501Y-3882601D01*
G01X6354501Y-3919601D01*
G01X6321501Y-3919601D01*
G01X6321501Y-3882601D01*
G01X6297298Y-3882601D01*
G01X6292299Y-3887602D01*
G01X6292299Y-3967602D01*
G01X6297298Y-3972601D01*
G01X6377297Y-3972601D01*
G01X6382299Y-3967602D01*
G37*
G36*
G01X6377297Y-3812601D02*
G01X6354501Y-3812601D01*
G01X6354501Y-3774603D01*
G01X6321501Y-3774603D01*
G01X6321501Y-3812601D01*
G01X6297298Y-3812601D01*
G01X6292299Y-3807602D01*
G01X6292299Y-3728603D01*
G01X6297298Y-3723602D01*
G01X6377297Y-3723602D01*
G01X6382299Y-3728603D01*
G01X6382299Y-3807602D01*
G01X6377297Y-3812601D01*
G37*
G36*
G01X5479501Y-3753998D02*
G01X5479501Y-3833998D01*
G01X5484503Y-3838999D01*
G01X5507299Y-3838999D01*
G01X5507299Y-3801999D01*
G01X5540299Y-3801999D01*
G01X5540299Y-3838999D01*
G01X5564502Y-3838999D01*
G01X5569501Y-3833998D01*
G01X5569501Y-3753998D01*
G01X5564502Y-3748999D01*
G01X5484503Y-3748999D01*
G01X5479501Y-3753998D01*
G37*
G36*
G01X5484503Y-3908999D02*
G01X5507299Y-3908999D01*
G01X5507299Y-3946997D01*
G01X5540299Y-3946997D01*
G01X5540299Y-3908999D01*
G01X5564502Y-3908999D01*
G01X5569501Y-3913998D01*
G01X5569501Y-3992997D01*
G01X5564502Y-3997998D01*
G01X5484503Y-3997998D01*
G01X5479501Y-3992997D01*
G01X5479501Y-3913998D01*
G01X5484503Y-3908999D01*
G37*
G36*
G01X4768301Y-4452498D02*
G01X4768301Y-4532498D01*
G01X4773303Y-4537499D01*
G01X4796099Y-4537499D01*
G01X4796099Y-4500499D01*
G01X4829099Y-4500499D01*
G01X4829099Y-4537499D01*
G01X4853302Y-4537499D01*
G01X4858301Y-4532498D01*
G01X4858301Y-4452498D01*
G01X4853302Y-4447499D01*
G01X4773303Y-4447499D01*
G01X4768301Y-4452498D01*
G37*
G36*
G01X4858299Y-4691502D02*
G01X4858299Y-4611502D01*
G01X4853297Y-4606501D01*
G01X4830501Y-4606501D01*
G01X4830501Y-4643501D01*
G01X4797501Y-4643501D01*
G01X4797501Y-4606501D01*
G01X4773298Y-4606501D01*
G01X4768299Y-4611502D01*
G01X4768299Y-4691502D01*
G01X4773298Y-4696501D01*
G01X4853297Y-4696501D01*
G01X4858299Y-4691502D01*
G37*
G36*
G01X4527001Y-6852798D02*
G01X4527001Y-6932798D01*
G01X4532003Y-6937799D01*
G01X4554799Y-6937799D01*
G01X4554799Y-6900799D01*
G01X4587799Y-6900799D01*
G01X4587799Y-6937799D01*
G01X4612002Y-6937799D01*
G01X4617001Y-6932798D01*
G01X4617001Y-6852798D01*
G01X4612002Y-6847799D01*
G01X4532003Y-6847799D01*
G01X4527001Y-6852798D01*
G37*
G36*
G01X4616999Y-7091802D02*
G01X4616999Y-7011802D01*
G01X4611997Y-7006801D01*
G01X4589201Y-7006801D01*
G01X4589201Y-7043801D01*
G01X4556201Y-7043801D01*
G01X4556201Y-7006801D01*
G01X4531998Y-7006801D01*
G01X4526999Y-7011802D01*
G01X4526999Y-7091802D01*
G01X4531998Y-7096801D01*
G01X4611997Y-7096801D01*
G01X4616999Y-7091802D01*
G37*
G36*
G01X6013999Y-5110602D02*
G01X6013999Y-5030602D01*
G01X6008997Y-5025601D01*
G01X5986201Y-5025601D01*
G01X5986201Y-5062601D01*
G01X5953201Y-5062601D01*
G01X5953201Y-5025601D01*
G01X5928998Y-5025601D01*
G01X5923999Y-5030602D01*
G01X5923999Y-5110602D01*
G01X5928998Y-5115601D01*
G01X6008997Y-5115601D01*
G01X6013999Y-5110602D01*
G37*
G36*
G01X5924001Y-4871598D02*
G01X5924001Y-4951598D01*
G01X5929003Y-4956599D01*
G01X5951799Y-4956599D01*
G01X5951799Y-4919599D01*
G01X5984799Y-4919599D01*
G01X5984799Y-4956599D01*
G01X6009002Y-4956599D01*
G01X6014001Y-4951598D01*
G01X6014001Y-4871598D01*
G01X6009002Y-4866599D01*
G01X5929003Y-4866599D01*
G01X5924001Y-4871598D01*
G37*
G36*
G01X5924001Y-4528698D02*
G01X5924001Y-4608698D01*
G01X5929003Y-4613699D01*
G01X5951799Y-4613699D01*
G01X5951799Y-4576699D01*
G01X5984799Y-4576699D01*
G01X5984799Y-4613699D01*
G01X6009002Y-4613699D01*
G01X6014001Y-4608698D01*
G01X6014001Y-4528698D01*
G01X6009002Y-4523699D01*
G01X5929003Y-4523699D01*
G01X5924001Y-4528698D01*
G37*
G36*
G01X5929003Y-4683699D02*
G01X5951799Y-4683699D01*
G01X5951799Y-4721697D01*
G01X5984799Y-4721697D01*
G01X5984799Y-4683699D01*
G01X6009002Y-4683699D01*
G01X6014001Y-4688698D01*
G01X6014001Y-4767697D01*
G01X6009002Y-4772698D01*
G01X5929003Y-4772698D01*
G01X5924001Y-4767697D01*
G01X5924001Y-4688698D01*
G01X5929003Y-4683699D01*
G37*
G36*
G01X5302799Y-4374002D02*
G01X5302799Y-4294002D01*
G01X5297797Y-4289001D01*
G01X5275001Y-4289001D01*
G01X5275001Y-4326001D01*
G01X5242001Y-4326001D01*
G01X5242001Y-4289001D01*
G01X5217798Y-4289001D01*
G01X5212799Y-4294002D01*
G01X5212799Y-4374002D01*
G01X5217798Y-4379001D01*
G01X5297797Y-4379001D01*
G01X5302799Y-4374002D01*
G37*
G36*
G01X5297797Y-4219001D02*
G01X5275001Y-4219001D01*
G01X5275001Y-4181003D01*
G01X5242001Y-4181003D01*
G01X5242001Y-4219001D01*
G01X5217798Y-4219001D01*
G01X5212799Y-4214002D01*
G01X5212799Y-4135003D01*
G01X5217798Y-4130002D01*
G01X5297797Y-4130002D01*
G01X5302799Y-4135003D01*
G01X5302799Y-4214002D01*
G01X5297797Y-4219001D01*
G37*
G36*
G01X4566199Y-6025002D02*
G01X4566199Y-5945002D01*
G01X4561197Y-5940001D01*
G01X4538401Y-5940001D01*
G01X4538401Y-5977001D01*
G01X4505401Y-5977001D01*
G01X4505401Y-5940001D01*
G01X4481198Y-5940001D01*
G01X4476199Y-5945002D01*
G01X4476199Y-6025002D01*
G01X4481198Y-6030001D01*
G01X4561197Y-6030001D01*
G01X4566199Y-6025002D01*
G37*
G36*
G01X4561197Y-5870001D02*
G01X4538401Y-5870001D01*
G01X4538401Y-5832003D01*
G01X4505401Y-5832003D01*
G01X4505401Y-5870001D01*
G01X4481198Y-5870001D01*
G01X4476199Y-5865002D01*
G01X4476199Y-5786003D01*
G01X4481198Y-5781002D01*
G01X4561197Y-5781002D01*
G01X4566199Y-5786003D01*
G01X4566199Y-5865002D01*
G01X4561197Y-5870001D01*
G37*
G36*
G01X6216101Y-4515998D02*
G01X6216101Y-4595998D01*
G01X6221103Y-4600999D01*
G01X6243899Y-4600999D01*
G01X6243899Y-4563999D01*
G01X6276899Y-4563999D01*
G01X6276899Y-4600999D01*
G01X6301102Y-4600999D01*
G01X6306101Y-4595998D01*
G01X6306101Y-4515998D01*
G01X6301102Y-4510999D01*
G01X6221103Y-4510999D01*
G01X6216101Y-4515998D01*
G37*
G36*
G01X6306099Y-4755002D02*
G01X6306099Y-4675002D01*
G01X6301097Y-4670001D01*
G01X6278301Y-4670001D01*
G01X6278301Y-4707001D01*
G01X6245301Y-4707001D01*
G01X6245301Y-4670001D01*
G01X6221098Y-4670001D01*
G01X6216099Y-4675002D01*
G01X6216099Y-4755002D01*
G01X6221098Y-4760001D01*
G01X6301097Y-4760001D01*
G01X6306099Y-4755002D01*
G37*
G36*
G01X6508201Y-4528698D02*
G01X6508201Y-4608698D01*
G01X6513203Y-4613699D01*
G01X6535999Y-4613699D01*
G01X6535999Y-4576699D01*
G01X6568999Y-4576699D01*
G01X6568999Y-4613699D01*
G01X6593202Y-4613699D01*
G01X6598201Y-4608698D01*
G01X6598201Y-4528698D01*
G01X6593202Y-4523699D01*
G01X6513203Y-4523699D01*
G01X6508201Y-4528698D01*
G37*
G36*
G01X6598199Y-4767702D02*
G01X6598199Y-4687702D01*
G01X6593197Y-4682701D01*
G01X6570401Y-4682701D01*
G01X6570401Y-4719701D01*
G01X6537401Y-4719701D01*
G01X6537401Y-4682701D01*
G01X6513198Y-4682701D01*
G01X6508199Y-4687702D01*
G01X6508199Y-4767702D01*
G01X6513198Y-4772701D01*
G01X6593197Y-4772701D01*
G01X6598199Y-4767702D01*
G37*
G36*
G01X6604003Y-3625099D02*
G01X6490002Y-3625099D01*
G01X6490002Y-3655097D01*
G01X6490002Y-3655098D01*
G01X6490002Y-3685097D01*
G01X6604003Y-3685097D01*
G01X6604003Y-3655098D01*
G01X6604003Y-3655097D01*
G01X6604003Y-3625099D01*
G37*
G36*
G01X6490002Y-4165106D02*
G01X6604003Y-4165106D01*
G01X6604003Y-4135106D01*
G01X6490002Y-4135106D01*
G01X6490002Y-4165106D01*
G37*
G36*
G01X6490002Y-3915094D02*
G01X6604003Y-3915094D01*
G01X6604003Y-3885093D01*
G01X6490002Y-3885093D01*
G01X6490002Y-3915094D01*
G37*
G36*
G01X6604003Y-3985094D02*
G01X6490002Y-3985094D01*
G01X6490002Y-4015094D01*
G01X6604003Y-4015094D01*
G01X6604003Y-3985094D01*
G37*
G36*
G01X6490002Y-4115093D02*
G01X6604003Y-4115093D01*
G01X6604003Y-4085093D01*
G01X6490002Y-4085093D01*
G01X6490002Y-4115093D01*
G37*
G36*
G01X6490002Y-3865132D02*
G01X6604003Y-3865132D01*
G01X6604003Y-3835132D01*
G01X6490002Y-3835132D01*
G01X6490002Y-3865132D01*
G37*
G36*
G01X6604003Y-3705109D02*
G01X6490002Y-3705109D01*
G01X6490002Y-3735107D01*
G01X6490002Y-3735109D01*
G01X6490002Y-3765107D01*
G01X6604003Y-3765107D01*
G01X6604003Y-3735109D01*
G01X6604003Y-3735107D01*
G01X6604003Y-3705109D01*
G37*
G36*
G01X6490002Y-3815093D02*
G01X6604003Y-3815093D01*
G01X6604003Y-3785094D01*
G01X6490002Y-3785094D01*
G01X6490002Y-3815093D01*
G37*
G36*
G01X6604130Y-3935106D02*
G01X6490130Y-3935106D01*
G01X6490130Y-3965105D01*
G01X6604130Y-3965105D01*
G01X6604130Y-3935106D01*
G37*
G36*
G01X6490130Y-4065106D02*
G01X6604130Y-4065106D01*
G01X6604130Y-4035105D01*
G01X6490130Y-4035105D01*
G01X6490130Y-4065106D01*
G37*
G36*
G01X6490130Y-4325101D02*
G01X6604130Y-4325101D01*
G01X6604130Y-4295103D01*
G01X6604130Y-4295101D01*
G01X6604130Y-4265103D01*
G01X6490130Y-4265103D01*
G01X6490130Y-4295101D01*
G01X6490130Y-4295103D01*
G01X6490130Y-4325101D01*
G37*
G36*
G01X6504008Y-3544593D02*
G01X6504158Y-3547580D01*
G01X6504455Y-3550557D01*
G01X6504902Y-3553516D01*
G01X6505494Y-3556447D01*
G01X6506233Y-3559348D01*
G01X6507114Y-3562205D01*
G01X6508138Y-3565017D01*
G01X6509299Y-3567773D01*
G01X6510597Y-3570470D01*
G01X6512029Y-3573097D01*
G01X6513589Y-3575649D01*
G01X6515273Y-3578121D01*
G01X6517081Y-3580506D01*
G01X6519004Y-3582797D01*
G01X6521039Y-3584992D01*
G01X6523180Y-3587079D01*
G01X6525423Y-3589061D01*
G01X6527762Y-3590925D01*
G01X6530190Y-3592670D01*
G01X6532705Y-3594293D01*
G01X6535296Y-3595789D01*
G01X6537957Y-3597156D01*
G01X6540683Y-3598385D01*
G01X6543469Y-3599477D01*
G01X6546304Y-3600432D01*
G01X6549184Y-3601242D01*
G01X6552100Y-3601908D01*
G01X6555047Y-3602426D01*
G01X6558016Y-3602799D01*
G01X6561000Y-3603023D01*
G01X6563990Y-3603097D01*
G01X6683990Y-3603097D01*
G01X6686979Y-3603023D01*
G01X6689964Y-3602799D01*
G01X6692933Y-3602426D01*
G01X6695879Y-3601908D01*
G01X6698795Y-3601242D01*
G01X6701676Y-3600432D01*
G01X6704510Y-3599477D01*
G01X6707297Y-3598385D01*
G01X6710022Y-3597156D01*
G01X6712684Y-3595789D01*
G01X6715275Y-3594293D01*
G01X6717789Y-3592670D01*
G01X6720218Y-3590925D01*
G01X6722557Y-3589061D01*
G01X6724800Y-3587079D01*
G01X6726941Y-3584992D01*
G01X6728976Y-3582797D01*
G01X6730898Y-3580506D01*
G01X6732707Y-3578121D01*
G01X6734391Y-3575649D01*
G01X6735950Y-3573097D01*
G01X6737383Y-3570470D01*
G01X6738681Y-3567773D01*
G01X6739842Y-3565017D01*
G01X6740865Y-3562205D01*
G01X6741747Y-3559348D01*
G01X6742486Y-3556447D01*
G01X6743078Y-3553516D01*
G01X6743525Y-3550557D01*
G01X6743822Y-3547580D01*
G01X6743972Y-3544593D01*
G01X6743972Y-3541601D01*
G01X6743822Y-3538614D01*
G01X6743525Y-3535637D01*
G01X6743078Y-3532678D01*
G01X6742486Y-3529747D01*
G01X6741747Y-3526846D01*
G01X6740865Y-3523988D01*
G01X6739842Y-3521177D01*
G01X6738681Y-3518421D01*
G01X6737383Y-3515723D01*
G01X6735950Y-3513097D01*
G01X6734391Y-3510544D01*
G01X6732707Y-3508073D01*
G01X6730898Y-3505688D01*
G01X6728976Y-3503397D01*
G01X6726941Y-3501202D01*
G01X6724800Y-3499114D01*
G01X6722557Y-3497133D01*
G01X6720218Y-3495269D01*
G01X6717789Y-3493524D01*
G01X6715275Y-3491901D01*
G01X6712684Y-3490404D01*
G01X6710022Y-3489038D01*
G01X6707297Y-3487809D01*
G01X6704510Y-3486716D01*
G01X6701676Y-3485761D01*
G01X6698795Y-3484951D01*
G01X6695879Y-3484286D01*
G01X6692933Y-3483767D01*
G01X6689964Y-3483394D01*
G01X6686979Y-3483171D01*
G01X6683990Y-3483097D01*
G01X6563990Y-3483097D01*
G01X6561000Y-3483171D01*
G01X6558016Y-3483394D01*
G01X6555047Y-3483767D01*
G01X6552100Y-3484286D01*
G01X6549184Y-3484951D01*
G01X6546304Y-3485761D01*
G01X6543469Y-3486716D01*
G01X6540683Y-3487809D01*
G01X6537957Y-3489038D01*
G01X6535296Y-3490404D01*
G01X6532705Y-3491901D01*
G01X6530190Y-3493524D01*
G01X6527762Y-3495269D01*
G01X6525423Y-3497133D01*
G01X6523180Y-3499114D01*
G01X6521039Y-3501202D01*
G01X6519004Y-3503397D01*
G01X6517081Y-3505688D01*
G01X6515273Y-3508073D01*
G01X6513589Y-3510544D01*
G01X6512029Y-3513097D01*
G01X6510597Y-3515723D01*
G01X6509299Y-3518421D01*
G01X6508138Y-3521177D01*
G01X6507114Y-3523988D01*
G01X6506233Y-3526846D01*
G01X6505494Y-3529747D01*
G01X6504902Y-3532678D01*
G01X6504455Y-3535637D01*
G01X6504158Y-3538614D01*
G01X6504008Y-3541601D01*
G01X6504008Y-3544593D01*
G37*
G36*
G01X6504158Y-4402595D02*
G01X6504008Y-4405582D01*
G01X6504008Y-4408574D01*
G01X6504158Y-4411561D01*
G01X6504455Y-4414538D01*
G01X6504902Y-4417497D01*
G01X6505494Y-4420428D01*
G01X6506233Y-4423329D01*
G01X6507114Y-4426186D01*
G01X6508138Y-4428998D01*
G01X6509299Y-4431754D01*
G01X6510597Y-4434451D01*
G01X6512029Y-4437078D01*
G01X6513589Y-4439630D01*
G01X6515273Y-4442102D01*
G01X6517081Y-4444487D01*
G01X6519004Y-4446778D01*
G01X6521039Y-4448973D01*
G01X6523180Y-4451060D01*
G01X6525423Y-4453042D01*
G01X6527762Y-4454906D01*
G01X6530190Y-4456651D01*
G01X6532705Y-4458274D01*
G01X6535296Y-4459770D01*
G01X6537957Y-4461137D01*
G01X6540683Y-4462366D01*
G01X6543469Y-4463458D01*
G01X6546304Y-4464413D01*
G01X6549184Y-4465223D01*
G01X6552100Y-4465889D01*
G01X6555047Y-4466407D01*
G01X6558016Y-4466780D01*
G01X6561000Y-4467004D01*
G01X6563990Y-4467078D01*
G01X6683990Y-4467078D01*
G01X6686979Y-4467004D01*
G01X6689964Y-4466780D01*
G01X6692933Y-4466407D01*
G01X6695879Y-4465889D01*
G01X6698795Y-4465223D01*
G01X6701676Y-4464413D01*
G01X6704510Y-4463458D01*
G01X6707297Y-4462366D01*
G01X6710022Y-4461137D01*
G01X6712684Y-4459770D01*
G01X6715275Y-4458274D01*
G01X6717789Y-4456651D01*
G01X6720218Y-4454906D01*
G01X6722557Y-4453042D01*
G01X6724800Y-4451060D01*
G01X6726941Y-4448973D01*
G01X6728976Y-4446778D01*
G01X6730898Y-4444487D01*
G01X6732707Y-4442102D01*
G01X6734391Y-4439630D01*
G01X6735950Y-4437078D01*
G01X6737383Y-4434451D01*
G01X6738681Y-4431754D01*
G01X6739842Y-4428998D01*
G01X6740865Y-4426186D01*
G01X6741747Y-4423329D01*
G01X6742486Y-4420428D01*
G01X6743078Y-4417497D01*
G01X6743525Y-4414538D01*
G01X6743822Y-4411561D01*
G01X6743972Y-4408574D01*
G01X6743972Y-4405582D01*
G01X6743822Y-4402595D01*
G01X6743525Y-4399618D01*
G01X6743078Y-4396659D01*
G01X6742486Y-4393728D01*
G01X6741747Y-4390827D01*
G01X6740865Y-4387969D01*
G01X6739842Y-4385158D01*
G01X6738681Y-4382402D01*
G01X6737383Y-4379704D01*
G01X6735950Y-4377078D01*
G01X6734391Y-4374525D01*
G01X6732707Y-4372054D01*
G01X6730898Y-4369669D01*
G01X6728976Y-4367378D01*
G01X6726941Y-4365183D01*
G01X6724800Y-4363095D01*
G01X6722557Y-4361114D01*
G01X6720218Y-4359250D01*
G01X6717789Y-4357505D01*
G01X6715275Y-4355882D01*
G01X6712684Y-4354385D01*
G01X6710022Y-4353019D01*
G01X6707297Y-4351790D01*
G01X6704510Y-4350697D01*
G01X6701676Y-4349742D01*
G01X6698795Y-4348932D01*
G01X6695879Y-4348267D01*
G01X6692933Y-4347748D01*
G01X6689964Y-4347375D01*
G01X6686979Y-4347152D01*
G01X6683990Y-4347078D01*
G01X6563990Y-4347078D01*
G01X6561000Y-4347152D01*
G01X6558016Y-4347375D01*
G01X6555047Y-4347748D01*
G01X6552100Y-4348267D01*
G01X6549184Y-4348932D01*
G01X6546304Y-4349742D01*
G01X6543469Y-4350697D01*
G01X6540683Y-4351790D01*
G01X6537957Y-4353019D01*
G01X6535296Y-4354385D01*
G01X6532705Y-4355882D01*
G01X6530190Y-4357505D01*
G01X6527762Y-4359250D01*
G01X6525423Y-4361114D01*
G01X6523180Y-4363095D01*
G01X6521039Y-4365183D01*
G01X6519004Y-4367378D01*
G01X6517081Y-4369669D01*
G01X6515273Y-4372054D01*
G01X6513589Y-4374525D01*
G01X6512029Y-4377078D01*
G01X6510597Y-4379704D01*
G01X6509299Y-4382402D01*
G01X6508138Y-4385158D01*
G01X6507114Y-4387969D01*
G01X6506233Y-4390827D01*
G01X6505494Y-4393728D01*
G01X6504902Y-4396659D01*
G01X6504455Y-4399618D01*
G01X6504158Y-4402595D01*
G37*
G36*
G01X6952165Y-3538614D02*
G01X6952016Y-3541601D01*
G01X6952016Y-3544593D01*
G01X6952165Y-3547580D01*
G01X6952463Y-3550557D01*
G01X6952910Y-3553516D01*
G01X6953501Y-3556447D01*
G01X6954241Y-3559348D01*
G01X6955122Y-3562205D01*
G01X6956146Y-3565017D01*
G01X6957306Y-3567773D01*
G01X6958604Y-3570470D01*
G01X6960037Y-3573097D01*
G01X6961596Y-3575649D01*
G01X6963280Y-3578121D01*
G01X6965089Y-3580506D01*
G01X6967012Y-3582797D01*
G01X6969046Y-3584992D01*
G01X6971187Y-3587079D01*
G01X6973430Y-3589061D01*
G01X6975770Y-3590925D01*
G01X6978198Y-3592670D01*
G01X6980712Y-3594293D01*
G01X6983303Y-3595789D01*
G01X6985965Y-3597156D01*
G01X6988691Y-3598385D01*
G01X6991477Y-3599477D01*
G01X6994312Y-3600432D01*
G01X6997192Y-3601242D01*
G01X7000108Y-3601908D01*
G01X7003054Y-3602426D01*
G01X7006024Y-3602799D01*
G01X7009008Y-3603023D01*
G01X7011998Y-3603097D01*
G01X7071998Y-3603097D01*
G01X7074987Y-3603023D01*
G01X7077972Y-3602799D01*
G01X7080941Y-3602426D01*
G01X7083887Y-3601908D01*
G01X7086803Y-3601242D01*
G01X7089684Y-3600432D01*
G01X7092518Y-3599477D01*
G01X7095305Y-3598385D01*
G01X7098030Y-3597156D01*
G01X7100692Y-3595789D01*
G01X7103283Y-3594293D01*
G01X7105797Y-3592670D01*
G01X7108226Y-3590925D01*
G01X7110565Y-3589061D01*
G01X7112808Y-3587079D01*
G01X7114949Y-3584992D01*
G01X7116983Y-3582797D01*
G01X7118906Y-3580506D01*
G01X7120715Y-3578121D01*
G01X7122399Y-3575649D01*
G01X7123958Y-3573097D01*
G01X7125391Y-3570470D01*
G01X7126689Y-3567773D01*
G01X7127850Y-3565017D01*
G01X7128873Y-3562205D01*
G01X7129755Y-3559348D01*
G01X7130494Y-3556447D01*
G01X7131086Y-3553516D01*
G01X7131533Y-3550557D01*
G01X7131830Y-3547580D01*
G01X7131980Y-3544593D01*
G01X7131980Y-3541601D01*
G01X7131830Y-3538614D01*
G01X7131533Y-3535637D01*
G01X7131086Y-3532678D01*
G01X7130494Y-3529747D01*
G01X7129755Y-3526846D01*
G01X7128873Y-3523988D01*
G01X7127850Y-3521177D01*
G01X7126689Y-3518421D01*
G01X7125391Y-3515723D01*
G01X7123958Y-3513097D01*
G01X7122399Y-3510544D01*
G01X7120715Y-3508073D01*
G01X7118906Y-3505688D01*
G01X7116983Y-3503397D01*
G01X7114949Y-3501202D01*
G01X7112808Y-3499114D01*
G01X7110565Y-3497133D01*
G01X7108226Y-3495269D01*
G01X7105797Y-3493524D01*
G01X7103283Y-3491901D01*
G01X7100692Y-3490404D01*
G01X7098030Y-3489038D01*
G01X7095305Y-3487809D01*
G01X7092518Y-3486716D01*
G01X7089684Y-3485761D01*
G01X7086803Y-3484951D01*
G01X7083887Y-3484286D01*
G01X7080941Y-3483767D01*
G01X7077972Y-3483394D01*
G01X7074987Y-3483171D01*
G01X7071998Y-3483097D01*
G01X7011998Y-3483097D01*
G01X7009008Y-3483171D01*
G01X7006024Y-3483394D01*
G01X7003054Y-3483767D01*
G01X7000108Y-3484286D01*
G01X6997192Y-3484951D01*
G01X6994312Y-3485761D01*
G01X6991477Y-3486716D01*
G01X6988691Y-3487809D01*
G01X6985965Y-3489038D01*
G01X6983303Y-3490404D01*
G01X6980712Y-3491901D01*
G01X6978198Y-3493524D01*
G01X6975770Y-3495269D01*
G01X6973430Y-3497133D01*
G01X6971187Y-3499114D01*
G01X6969046Y-3501202D01*
G01X6967012Y-3503397D01*
G01X6965089Y-3505688D01*
G01X6963280Y-3508073D01*
G01X6961596Y-3510544D01*
G01X6960037Y-3513097D01*
G01X6958604Y-3515723D01*
G01X6957306Y-3518421D01*
G01X6956146Y-3521177D01*
G01X6955122Y-3523988D01*
G01X6954241Y-3526846D01*
G01X6953501Y-3529747D01*
G01X6952910Y-3532678D01*
G01X6952463Y-3535637D01*
G01X6952165Y-3538614D01*
G37*
G36*
G01X6952165Y-4402620D02*
G01X6952016Y-4405607D01*
G01X6952016Y-4408599D01*
G01X6952165Y-4411586D01*
G01X6952463Y-4414563D01*
G01X6952910Y-4417522D01*
G01X6953501Y-4420453D01*
G01X6954241Y-4423354D01*
G01X6955122Y-4426212D01*
G01X6956146Y-4429023D01*
G01X6957306Y-4431779D01*
G01X6958604Y-4434477D01*
G01X6960037Y-4437103D01*
G01X6961596Y-4439656D01*
G01X6963280Y-4442127D01*
G01X6965089Y-4444512D01*
G01X6967012Y-4446803D01*
G01X6969046Y-4448998D01*
G01X6971187Y-4451086D01*
G01X6973430Y-4453067D01*
G01X6975770Y-4454931D01*
G01X6978198Y-4456676D01*
G01X6980712Y-4458299D01*
G01X6983303Y-4459795D01*
G01X6985965Y-4461162D01*
G01X6988691Y-4462391D01*
G01X6991477Y-4463484D01*
G01X6994312Y-4464439D01*
G01X6997192Y-4465249D01*
G01X7000108Y-4465914D01*
G01X7003054Y-4466433D01*
G01X7006024Y-4466806D01*
G01X7009008Y-4467029D01*
G01X7011998Y-4467103D01*
G01X7071998Y-4467103D01*
G01X7074987Y-4467029D01*
G01X7077972Y-4466806D01*
G01X7080941Y-4466433D01*
G01X7083887Y-4465914D01*
G01X7086803Y-4465249D01*
G01X7089684Y-4464439D01*
G01X7092518Y-4463484D01*
G01X7095305Y-4462391D01*
G01X7098030Y-4461162D01*
G01X7100692Y-4459795D01*
G01X7103283Y-4458299D01*
G01X7105797Y-4456676D01*
G01X7108226Y-4454931D01*
G01X7110565Y-4453067D01*
G01X7112808Y-4451086D01*
G01X7114949Y-4448998D01*
G01X7116983Y-4446803D01*
G01X7118906Y-4444512D01*
G01X7120715Y-4442127D01*
G01X7122399Y-4439656D01*
G01X7123958Y-4437103D01*
G01X7125391Y-4434477D01*
G01X7126689Y-4431779D01*
G01X7127850Y-4429023D01*
G01X7128873Y-4426212D01*
G01X7129755Y-4423354D01*
G01X7130494Y-4420453D01*
G01X7131086Y-4417522D01*
G01X7131533Y-4414563D01*
G01X7131830Y-4411586D01*
G01X7131980Y-4408599D01*
G01X7131980Y-4405607D01*
G01X7131830Y-4402620D01*
G01X7131533Y-4399643D01*
G01X7131086Y-4396684D01*
G01X7130494Y-4393753D01*
G01X7129755Y-4390852D01*
G01X7128873Y-4387995D01*
G01X7127850Y-4385183D01*
G01X7126689Y-4382427D01*
G01X7125391Y-4379730D01*
G01X7123958Y-4377103D01*
G01X7122399Y-4374551D01*
G01X7120715Y-4372079D01*
G01X7118906Y-4369694D01*
G01X7116983Y-4367403D01*
G01X7114949Y-4365208D01*
G01X7112808Y-4363121D01*
G01X7110565Y-4361139D01*
G01X7108226Y-4359275D01*
G01X7105797Y-4357530D01*
G01X7103283Y-4355907D01*
G01X7100692Y-4354411D01*
G01X7098030Y-4353044D01*
G01X7095305Y-4351815D01*
G01X7092518Y-4350723D01*
G01X7089684Y-4349768D01*
G01X7086803Y-4348958D01*
G01X7083887Y-4348292D01*
G01X7080941Y-4347774D01*
G01X7077972Y-4347400D01*
G01X7074987Y-4347177D01*
G01X7071998Y-4347103D01*
G01X7011998Y-4347103D01*
G01X7009008Y-4347177D01*
G01X7006024Y-4347400D01*
G01X7003054Y-4347774D01*
G01X7000108Y-4348292D01*
G01X6997192Y-4348958D01*
G01X6994312Y-4349768D01*
G01X6991477Y-4350723D01*
G01X6988691Y-4351815D01*
G01X6985965Y-4353044D01*
G01X6983303Y-4354411D01*
G01X6980712Y-4355907D01*
G01X6978198Y-4357530D01*
G01X6975770Y-4359275D01*
G01X6973430Y-4361139D01*
G01X6971187Y-4363121D01*
G01X6969046Y-4365208D01*
G01X6967012Y-4367403D01*
G01X6965089Y-4369694D01*
G01X6963280Y-4372079D01*
G01X6961596Y-4374551D01*
G01X6960037Y-4377103D01*
G01X6958604Y-4379730D01*
G01X6957306Y-4382427D01*
G01X6956146Y-4385183D01*
G01X6955122Y-4387995D01*
G01X6954241Y-4390852D01*
G01X6953501Y-4393753D01*
G01X6952910Y-4396684D01*
G01X6952463Y-4399643D01*
G01X6952165Y-4402620D01*
G37*
G36*
G01X6490409Y-4245115D02*
G01X6604409Y-4245115D01*
G01X6604409Y-4215117D01*
G01X6604409Y-4215115D01*
G01X6604409Y-4185117D01*
G01X6490409Y-4185117D01*
G01X6490409Y-4215115D01*
G01X6490409Y-4215117D01*
G01X6490409Y-4245115D01*
G37*
G36*
G01X6762201Y-6268327D02*
G01X6762201Y-6348327D01*
G01X6767203Y-6353328D01*
G01X6789999Y-6353328D01*
G01X6789999Y-6316328D01*
G01X6822999Y-6316328D01*
G01X6822999Y-6353328D01*
G01X6847202Y-6353328D01*
G01X6852201Y-6348327D01*
G01X6852201Y-6268327D01*
G01X6847202Y-6263328D01*
G01X6767203Y-6263328D01*
G01X6762201Y-6268327D01*
G37*
G36*
G01X6767203Y-6423328D02*
G01X6789999Y-6423328D01*
G01X6789999Y-6461326D01*
G01X6822999Y-6461326D01*
G01X6822999Y-6423328D01*
G01X6847202Y-6423328D01*
G01X6852201Y-6428327D01*
G01X6852201Y-6507326D01*
G01X6847202Y-6512327D01*
G01X6767203Y-6512327D01*
G01X6762201Y-6507326D01*
G01X6762201Y-6428327D01*
G01X6767203Y-6423328D01*
G37*
G36*
G01X6762201Y-5879929D02*
G01X6762201Y-5959929D01*
G01X6767203Y-5964930D01*
G01X6789999Y-5964930D01*
G01X6789999Y-5927930D01*
G01X6822999Y-5927930D01*
G01X6822999Y-5964930D01*
G01X6847202Y-5964930D01*
G01X6852201Y-5959929D01*
G01X6852201Y-5879929D01*
G01X6847202Y-5874930D01*
G01X6767203Y-5874930D01*
G01X6762201Y-5879929D01*
G37*
G36*
G01X6852199Y-6118933D02*
G01X6852199Y-6038933D01*
G01X6847197Y-6033932D01*
G01X6824401Y-6033932D01*
G01X6824401Y-6070932D01*
G01X6791401Y-6070932D01*
G01X6791401Y-6033932D01*
G01X6767198Y-6033932D01*
G01X6762199Y-6038933D01*
G01X6762199Y-6118933D01*
G01X6767198Y-6123932D01*
G01X6847197Y-6123932D01*
G01X6852199Y-6118933D01*
G37*
G36*
G01X7233199Y-5732902D02*
G01X7233199Y-5652902D01*
G01X7228197Y-5647901D01*
G01X7205401Y-5647901D01*
G01X7205401Y-5684901D01*
G01X7172401Y-5684901D01*
G01X7172401Y-5647901D01*
G01X7148198Y-5647901D01*
G01X7143199Y-5652902D01*
G01X7143199Y-5732902D01*
G01X7148198Y-5737901D01*
G01X7228197Y-5737901D01*
G01X7233199Y-5732902D01*
G37*
G36*
G01X7228197Y-5577901D02*
G01X7205401Y-5577901D01*
G01X7205401Y-5539903D01*
G01X7172401Y-5539903D01*
G01X7172401Y-5577901D01*
G01X7148198Y-5577901D01*
G01X7143199Y-5572902D01*
G01X7143199Y-5493903D01*
G01X7148198Y-5488902D01*
G01X7228197Y-5488902D01*
G01X7233199Y-5493903D01*
G01X7233199Y-5572902D01*
G01X7228197Y-5577901D01*
G37*

G04 Pad Start*
G54D10*
G01X4546600Y-4844898D03*
G01X4546600Y-4984902D03*
G01X5524500Y-4197198D03*
G01X5524500Y-4337202D03*
G54D11*
G01X3949713Y-4283646D03*
G01X3949687Y-4123753D03*
G01X3949362Y-3755453D03*
G01X3950048Y-3915346D03*
G54D12*
G01X4316006Y-5627103D03*
G01X4316006Y-5752097D03*
G54D13*
G01X4065994Y-5382095D03*
G01X4065994Y-5997105D03*
G54D14*
G01X4231259Y-3848100D03*
G01X4231259Y-3975100D03*
G01X4231259Y-4102100D03*
G01X4231259Y-4229100D03*
G01X4785741Y-3848100D03*
G01X4785741Y-3975100D03*
G01X4785741Y-4102100D03*
G01X4785741Y-4229100D03*
G54D15*
G01X4508500Y-4038600D03*
G54D16*
G01X5016500Y-3790798D03*
G01X5016500Y-3930802D03*
G54D18*
G01X6070600Y-3524402D03*
G01X6070600Y-3384398D03*
G01X6324600Y-3537102D03*
G01X6324600Y-3397098D03*
G54D10*
G01X5765800Y-3778098D03*
G01X5765800Y-3918102D03*
G54D19*
G01X6737198Y-3340100D03*
G01X6877202Y-3340100D03*
G54D20*
G01X4399305Y-3492500D03*
G01X4719295Y-3492500D03*
G54D21*
G01X5170144Y-3569260D03*
G01X4980152Y-3569260D03*
G01X5170144Y-3349245D03*
G01X4980152Y-3349245D03*
G01X5075148Y-3349245D03*
G54D10*
G01X6261100Y-4921098D03*
G01X6261100Y-5061102D03*
G01X6553200Y-4921098D03*
G01X6553200Y-5061102D03*
G54D22*
G01X6057900Y-4333240D03*
G01X6057900Y-3820160D03*
G54D23*
G01X5561899Y-4870201D03*
G01X5791901Y-4775205D03*
G01X5561899Y-4680199D03*
G54D18*
G01X5765800Y-3524402D03*
G01X5765800Y-3384398D03*
G54D10*
G01X6311900Y-4146398D03*
G01X6311900Y-4286402D03*
G54D24*
G01X5111999Y-4612500D03*
G01X5111999Y-4712500D03*
G01X5111999Y-4812500D03*
G01X5111999Y-4912500D03*
G01X5302001Y-4912500D03*
G01X5302001Y-4812500D03*
G01X5302001Y-4712500D03*
G01X5302001Y-4612500D03*
G54D18*
G01X4559300Y-5581802D03*
G01X4559300Y-5441798D03*
G01X5778500Y-4324502D03*
G01X5778500Y-4184498D03*
G54D25*
G01X4572000Y-6724802D03*
G01X4572000Y-6584798D03*
G54D26*
G01X4248302Y-7061200D03*
G01X4108298Y-7061200D03*
G54D27*
G01X4532005Y-6221085D03*
G01X4572010Y-6221085D03*
G01X4612015Y-6221085D03*
G01X4532005Y-6261090D03*
G01X4572010Y-6261090D03*
G01X4612015Y-6261090D03*
G01X4532005Y-6301095D03*
G01X4572010Y-6301095D03*
G01X4612015Y-6301095D03*
G54D12*
G01X4316006Y-6465303D03*
G01X4316006Y-6590297D03*
G54D13*
G01X4065994Y-6220295D03*
G01X4065994Y-6835305D03*
G54D16*
G01X6817764Y-6737198D03*
G01X6817764Y-6877202D03*
G54D28*
G01X4264787Y-4529651D03*
G01X3964813Y-4529651D03*
G01X3964813Y-5029650D03*
G01X4264787Y-5029650D03*
G54D29*
G01X6816667Y-5533453D03*
G01X6816692Y-5693346D03*
G54D30*
G01X7013905Y-4554906D03*
G01X7243902Y-4554906D03*
G01X7243902Y-5274894D03*
G01X7013905Y-5274894D03*
G54D31*
G01X6903898Y-4689907D03*
G01X6903898Y-4839894D03*
G01X6903898Y-5139893D03*
G54D32*
G01X7202195Y-6475603D03*
G54D33*
G01X7202195Y-6935597D03*
G54D34*
G01X7047205Y-6538112D03*
G01X7047205Y-6873113D03*
G54D32*
G01X7202195Y-5866003D03*
G54D33*
G01X7202195Y-6325997D03*
G54D34*
G01X7047205Y-5928512D03*
G01X7047205Y-6263513D03*
G54D35*
G01X6577305Y-7036295D03*
G01X6577305Y-6909295D03*
G01X6577305Y-6782295D03*
G01X6577305Y-6655295D03*
G01X6577305Y-6528295D03*
G01X6577305Y-6401295D03*
G01X6577305Y-6274295D03*
G01X6577305Y-6147295D03*
G01X6577305Y-6020295D03*
G01X6577305Y-5893295D03*
G01X6577305Y-5766295D03*
G01X6577305Y-5639295D03*
G01X6577305Y-5512295D03*
G01X6577305Y-5385295D03*
G54D36*
G01X6400800Y-5257305D03*
G01X6273800Y-5257305D03*
G01X6146800Y-5257305D03*
G01X6019800Y-5257305D03*
G01X5892800Y-5257305D03*
G01X5765800Y-5257305D03*
G01X5638800Y-5257305D03*
G01X5511800Y-5257305D03*
G01X5384800Y-5257305D03*
G01X5257800Y-5257305D03*
G01X5130800Y-5257305D03*
G01X5003800Y-5260302D03*
G54D37*
G01X4827295Y-5385295D03*
G01X4827295Y-5512295D03*
G01X4827295Y-5639295D03*
G01X4827295Y-5766295D03*
G01X4827295Y-5893295D03*
G01X4827295Y-6020295D03*
G01X4827295Y-6147295D03*
G01X4827295Y-6274295D03*
G01X4827295Y-6401295D03*
G01X4827295Y-6528295D03*
G01X4827295Y-6655295D03*
G01X4827295Y-6782295D03*
G01X4827295Y-6909295D03*
G01X4827295Y-7036295D03*
G54D38*
G01X5712308Y-6124283D03*
G01X5852312Y-6124283D03*
G01X5992317Y-6124283D03*
G01X5992317Y-6404292D03*
G01X5852312Y-6404292D03*
G01X5712308Y-6404292D03*
G01X5712308Y-6264288D03*
G01X5992317Y-6264288D03*
G01X5852312Y-6264288D03*
G04 Pad End*

M02*

